<svg
            xmlns="http://www.w3.org/2000/svg"
            width="112"
            height="111"
            viewBox="0 0 112 111"
            fill="none"
          >
            <path
              d="M109.153 23.3968C109.153 23.863 109.159 24.3292 109.153 24.7955C109.148 25.3326 108.878 25.6316 108.333 25.6418C107.798 25.6519 107.344 25.8445 106.973 26.2195C106.83 26.3665 106.753 26.5337 106.713 26.7516C106.386 28.4898 106.122 30.2382 105.673 31.946C105.418 32.9139 104.827 33.7703 103.905 34.3227C103.171 34.7636 102.407 34.4748 101.739 34.2923C100.618 33.9933 99.7417 34.2771 98.9264 34.9612C98.0652 35.691 97.4741 36.6386 96.8932 37.5863C95.6957 39.5475 94.1161 41.1844 92.3682 42.6185C90.9516 43.779 89.321 44.6811 87.7923 45.7047C87.0585 46.1963 87.084 46.7689 87.8279 47.2453C88.8369 47.8889 89.9325 48.3754 90.9873 48.9379C94.3657 50.7369 97.785 52.46 101.097 54.3705C102.305 55.0647 103.166 56.2759 104.012 57.4314C105.541 59.5142 106.213 61.9973 107.385 64.2423C108.083 65.5751 108.996 66.7559 109.826 67.9924C110.514 69.0161 111.212 70.0296 111.895 71.0584C112.165 71.4638 111.885 72.0111 111.39 72.0972C109.622 72.4114 107.854 72.7206 106.091 73.0449C105.118 73.2223 104.19 72.8929 103.263 72.7408C102.595 72.6344 101.907 72.5178 101.24 72.3912C99.8742 72.1378 98.4933 71.9351 97.1327 71.6411C97.0919 71.631 97.0512 71.6259 97.0104 71.631C95.6855 71.7324 94.381 71.3168 93.0663 71.3928C91.5784 71.479 90.2331 71.0026 88.8726 70.5415C86.075 69.6039 83.3335 68.5042 80.4952 67.7035C79.3742 67.3843 78.2531 67.0194 77.0709 67.0042C76.011 66.989 75.5779 67.4451 75.3741 68.4688C75.0225 70.283 74.6097 72.077 73.8402 73.7797C73.3103 74.9503 72.9179 76.1818 72.4389 77.3778C72.072 78.2849 71.537 79.1109 70.8796 79.8153C69.7178 81.0569 68.4949 82.2377 67.5522 83.6617C66.8235 84.7664 66.2731 85.9624 65.8909 87.2091C65.3202 89.0892 64.9279 91.025 64.3673 92.9051C63.9138 94.4254 62.5838 95.4035 60.8258 94.7802C59.8576 94.4356 58.8895 94.0707 57.8907 93.8325C56.6473 93.5335 55.0116 93.8325 54.5071 94.9423C54.2931 95.4136 54.1555 95.9255 54.1301 96.4525C54.1148 96.716 54.0995 96.9796 54.1301 97.2431C54.3696 99.4779 53.4421 101.317 52.1682 103.056C51.2612 104.292 50.3745 105.544 49.4981 106.801C49.0293 107.475 48.428 108.032 47.8114 108.544C47.1235 109.117 46.4967 109.745 45.8546 110.358C45.5744 110.627 45.2839 110.779 44.8865 110.779C44.3412 110.774 43.8062 110.824 43.2609 110.951C42.4966 111.129 41.7475 110.774 40.9933 110.667C40.0303 110.541 39.1334 110.125 38.2315 109.775C37.6404 109.542 37.2174 109.051 36.7231 108.671C35.5409 107.753 34.8632 106.441 34.0734 105.23C33.2122 103.902 32.188 102.767 30.7 102.214C29.0694 101.611 27.3725 101.439 25.7827 102.387C25.1559 102.762 24.6769 103.345 24.2743 103.953C24.0043 104.363 23.6527 104.647 23.2246 104.845C22.4144 105.23 21.4207 104.591 21.3137 103.573C21.1863 102.382 21.273 101.201 21.6602 100.046C22.338 98.0286 22.1851 96.189 20.5901 94.5673C19.3621 93.3156 17.9811 92.368 16.3505 91.7193C14.674 91.0504 13.074 90.199 11.5707 89.2108C10.6382 88.5976 10.0013 87.726 9.74648 86.5401C9.52227 85.5063 9.56813 84.4928 9.56304 83.4691C9.56304 82.1464 9.2522 80.9099 8.65091 79.7545C7.90693 78.3254 7.37189 76.8304 7.28526 75.224C7.24959 74.6108 7.15277 73.8861 7.79993 73.3895C8.12095 73.1412 8.4267 72.9587 8.84454 72.9891C9.04837 73.0043 9.2522 73.0094 9.45603 72.9891C9.88407 72.9486 10.4701 73.1918 10.6688 72.6851C10.8421 72.2442 10.3631 71.8793 10.0981 71.5651C9.46112 70.81 8.85983 70.0195 8.15153 69.3201C7.4738 68.6512 6.90308 67.886 6.33746 67.1258C5.84317 66.462 5.14506 66.1427 4.33485 66.0059C2.98958 65.7778 1.56278 65.7221 0.599695 64.5413C0.0748373 63.8977 -0.0831295 63.1376 0.0391674 62.3267C0.0850287 62.0277 0.334718 61.8453 0.579312 61.6983C2.41886 60.5987 4.27879 59.5294 6.10815 58.4094C7.27507 57.6949 8.47765 57.031 9.42036 55.9871C10.6637 54.6188 12.2434 53.6357 13.7109 52.5258C15.0868 51.4819 16.4117 50.3873 17.5786 49.1153C17.8945 48.7707 18.2461 48.5882 18.7149 48.7555C19.1532 48.9075 19.4385 49.1356 19.4181 49.6727C19.3977 50.2809 20.585 51.3451 21.2016 51.3299C21.6959 51.3147 21.915 50.889 22.1953 50.5951C22.7303 50.0376 23.3571 49.7741 24.1113 49.9261C25.1763 50.144 26.2464 50.367 27.291 50.6812C28.5751 51.0663 29.8541 50.9853 31.1026 50.5089C32.7026 49.8957 33.8084 48.6997 34.8072 47.372C35.597 46.323 36.3766 45.2638 37.2021 44.2503C37.6862 43.6523 38.2722 43.1709 38.9856 42.8111C40.1373 42.2283 41.243 41.5391 42.3692 40.9056C42.6596 40.7435 42.8227 40.5205 42.8329 40.181C42.8737 38.9039 42.8023 37.6522 42.4201 36.4157C42.145 35.5187 42.0227 34.5761 41.8239 33.6487C41.6354 32.7669 41.4469 31.8852 41.2481 31.0034C41.0443 30.1064 40.7997 29.2145 40.6214 28.3124C40.5143 27.7803 40.3564 27.2634 40.2901 26.7161C40.2545 26.4019 40.2647 26.0979 40.443 25.9256C40.973 25.4188 41.4876 24.8816 42.3233 24.8107C43.3781 24.7245 44.3922 24.4661 45.1463 23.6299C45.2279 23.5387 45.3145 23.4424 45.4215 23.3917C46.3336 22.9458 46.4356 22.0741 46.4508 21.238C46.461 20.5589 46.6547 19.9254 46.7719 19.2768C46.8687 18.7345 47.8471 18.0656 48.4331 18.0098C49.3707 17.9186 50.1962 18.1821 50.9554 18.7092C51.0574 18.7801 51.1491 18.8612 51.251 18.922C52.6217 19.7582 53.4014 19.6518 54.6345 18.5622C56.0868 17.275 57.534 15.9929 59.4041 15.2733C60.6373 14.7969 61.7278 14.0368 62.8182 13.2969C63.8883 12.5722 65.1164 12.3188 66.3088 11.9641C67.4859 11.6144 68.6834 11.3205 69.8809 11.0418C70.4924 10.8999 71.0886 10.7022 71.6899 10.5502C72.1281 10.4387 72.3982 10.2005 72.6326 9.85595C73.0504 9.24276 73.6415 9.06032 74.2479 9.4708C74.9307 9.93196 75.7511 10.0282 76.4645 10.4083C76.7958 10.5857 77.2238 10.5401 77.5907 10.3779C78.6914 9.89142 79.3232 9.08059 79.522 7.87448C79.7716 6.34911 80.2608 4.89975 81.3666 3.74939C81.7692 3.32877 82.2329 2.95376 82.7017 2.60916C83.7922 1.80846 84.6788 0.703709 85.9935 0.252686C87.7057 -0.340233 88.9184 0.0651812 89.3363 1.95036C89.8611 4.32203 91.1453 6.08052 93.2039 7.3221C93.4791 7.48934 93.7543 7.66164 94.0294 7.82887C94.9212 8.38632 95.8333 8.58396 96.8932 8.29003C97.9378 8.00117 99.0436 8.57382 99.5837 9.53668C100.455 11.0823 101.332 12.628 102.086 14.2344C102.641 15.4152 103.594 16.1703 104.695 16.8291C105.78 17.4777 106.932 18.0352 107.823 18.998C108.68 19.9254 108.965 21.0505 109.133 22.2312C109.194 22.6214 109.148 23.0117 109.153 23.3968C109.15 23.3968 109.15 23.3968 109.153 23.3968Z"
              fill="#E64827"
            />
          </svg>